<svg width="1709" height="3118" viewBox="0 0 1709 3118" fill="none" xmlns="http://www.w3.org/2000/svg">
<path d="M1480.67 1028.43L1480.66 1028.39L1480.65 1028.36C1478.66 1020.4 1476.17 1012.43 1473.17 1004.6L1468.5 1006.38C1462.74 991.345 1455.08 976.789 1445.52 963.661L1449.57 960.717C1444.64 953.959 1439.22 947.555 1433.3 941.63L1433.14 941.47L1432.96 941.325C1428.24 937.388 1423.48 933.511 1418.67 929.694L1415.56 933.609C1405.99 926.006 1396.26 918.639 1386.37 911.5L1389.3 907.446C1379.34 900.259 1369.22 893.301 1358.95 886.566L1356.21 890.748C1346.01 884.069 1335.66 877.608 1325.15 871.359L1327.7 867.061C1317.18 860.805 1306.49 854.76 1295.65 848.918L1293.28 853.319C1282.58 847.55 1271.72 841.98 1260.7 836.6L1262.9 832.107C1251.93 826.748 1240.8 821.577 1229.52 816.588L1227.5 821.16C1216.4 816.25 1205.15 811.515 1193.76 806.947L1195.62 802.306C1184.31 797.774 1172.85 793.407 1161.25 789.198L1159.54 793.898C1148.15 789.764 1136.61 785.782 1124.93 781.945L1126.49 777.195C1120.69 775.289 1114.85 773.419 1108.98 771.584L1108.7 771.496L1108.41 771.442L1108.41 771.442L1107.49 776.356L1107.48 776.355L1108.41 771.441L1108.41 771.441L1108.39 771.438L1108.38 771.436C1103.03 770.464 1097.68 769.491 1092.33 768.522L1091.44 773.442C1080.74 771.505 1070.04 769.583 1059.34 767.707L1060.2 762.783C1055.72 761.997 1051.24 761.22 1046.76 760.454L1038.79 742.413L1034.22 744.434L1016.1 703.44L1020.67 701.419L1002.56 660.425L997.985 662.446L979.87 621.452L984.443 619.431L977.443 603.591C981.523 601.836 985.558 599.996 989.545 598.074L987.374 593.57C998.303 588.303 1008.87 582.406 1019.03 575.929L1021.72 580.145C1032.1 573.528 1042.06 566.314 1051.56 558.551L1048.4 554.68C1057.76 547.024 1066.67 538.826 1075.06 530.133L1078.66 533.606C1087.19 524.776 1095.2 515.444 1102.65 505.658L1098.67 502.63C1105.98 493.029 1112.73 482.985 1118.88 472.544L1123.19 475.083C1129.41 464.536 1135.02 453.591 1139.98 442.295L1135.41 440.284C1140.24 429.278 1144.45 417.933 1147.99 406.297L1152.77 407.75C1156.32 396.085 1159.2 384.131 1161.37 371.931L1156.44 371.056C1158.54 359.276 1159.96 347.264 1160.68 335.061L1165.67 335.352C1166.02 329.255 1166.2 323.111 1166.2 316.926C1166.2 310.068 1165.98 303.26 1165.54 296.511L1160.56 296.833C1159.68 283.307 1157.93 270.019 1155.36 257.026L1160.27 256.056C1157.6 242.58 1154.07 229.416 1149.72 216.625L1144.99 218.232C1140.66 205.472 1135.51 193.09 1129.61 181.147L1134.09 178.932C1128.04 166.682 1121.21 154.887 1113.66 143.612L1109.51 146.393C1102.04 135.242 1093.86 124.607 1085.04 114.554L1088.8 111.256C1079.82 101.024 1070.18 91.3851 1059.95 82.4049L1056.65 86.1628C1046.59 77.3394 1035.96 69.1625 1024.81 61.697L1027.59 57.5421C1016.32 49.9937 1004.52 43.1606 992.27 37.108L990.056 41.5907C978.112 35.6897 965.73 30.5429 952.97 26.2126L954.577 21.4779C941.786 17.1368 928.622 13.6029 915.147 10.9371L914.176 15.842C901.183 13.2716 887.896 11.5213 874.369 10.6472L874.692 5.6576C867.942 5.22143 861.135 5 854.276 5C847.418 5 840.61 5.22143 833.861 5.6576L834.183 10.6472C820.656 11.5213 807.369 13.2717 794.376 15.842L793.405 10.9371C779.93 13.603 766.766 17.1368 753.975 21.4779L755.582 26.2126C742.822 30.543 730.44 35.6897 718.497 41.5907L716.282 37.108C704.032 43.1607 692.236 49.9938 680.961 57.5421L683.743 61.697C672.592 69.1625 661.957 77.3394 651.904 86.1628L648.606 82.4049C638.374 91.3851 628.735 101.024 619.755 111.256L623.513 114.554C614.689 124.607 606.512 135.242 599.047 146.393L594.892 143.612C587.344 154.887 580.511 166.682 574.458 178.932L578.941 181.147C573.04 193.09 567.893 205.473 563.563 218.232L558.828 216.625C554.487 229.416 550.953 242.58 548.287 256.056L553.192 257.026C550.622 270.019 548.871 283.307 547.997 296.833L543.008 296.511C542.571 303.26 542.35 310.068 542.35 316.926C542.35 323.111 542.53 329.255 542.885 335.352L547.877 335.061C548.588 347.264 550.012 359.276 552.108 371.056L547.185 371.931C549.356 384.131 552.236 396.085 555.781 407.75L560.565 406.297C564.101 417.933 568.31 429.278 573.146 440.284L568.569 442.295C573.532 453.591 579.146 464.536 585.362 475.083L589.669 472.544C595.823 482.985 602.576 493.029 609.883 502.63L605.904 505.658C613.351 515.444 621.364 524.776 629.893 533.606L633.489 530.133C641.885 538.826 650.79 547.024 660.156 554.68L656.992 558.551C666.488 566.314 676.45 573.528 686.831 580.145L689.518 575.929C699.68 582.407 710.249 588.303 721.178 593.57L719.007 598.074C723.11 600.052 727.262 601.942 731.463 603.743L725.829 619.797L730.547 621.452L716.159 662.446L711.441 660.791L697.054 701.784L701.772 703.44L687.385 744.434L682.667 742.778L676.408 760.612C670.671 761.814 664.935 763.063 659.199 764.355L660.298 769.232C647.11 772.203 633.922 775.404 620.734 778.807L619.485 773.966C612.922 775.659 606.36 777.402 599.799 779.192C593.823 780.686 587.884 782.252 581.981 783.889L583.318 788.707C571.473 791.992 559.775 795.562 548.224 799.403L546.646 794.659C534.913 798.561 523.331 802.74 511.899 807.183L513.71 811.843C502.271 816.288 490.984 820.999 479.848 825.96L477.813 821.392C466.536 826.416 455.414 831.694 444.447 837.211L446.694 841.677C435.743 847.187 424.946 852.936 414.304 858.911L411.856 854.551C401.105 860.586 390.513 866.849 380.078 873.323L382.714 877.571C372.304 884.03 362.051 890.702 351.955 897.57L349.142 893.436C338.957 900.364 328.932 907.491 319.067 914.799L322.043 918.817C312.2 926.109 302.516 933.584 292.991 941.226L289.862 937.326C285.064 941.176 280.306 945.067 275.589 948.998L275.414 949.143L275.254 949.303C269.33 955.228 263.908 961.632 258.986 968.39L263.028 971.334C253.467 984.462 245.809 999.019 240.054 1014.06L235.384 1012.27C232.385 1020.11 229.89 1028.07 227.9 1036.03L227.891 1036.06L227.883 1036.1L223.407 1055.12L228.274 1056.27L219.322 1094.31L214.455 1093.17L205.503 1131.21L210.37 1132.36L201.418 1170.4L196.551 1169.26L187.599 1207.31L192.466 1208.45L183.514 1246.5L178.647 1245.35L169.695 1283.4L174.562 1284.54L165.61 1322.59L160.743 1321.44L151.791 1359.49L156.658 1360.64L147.706 1398.68L142.839 1397.54L133.887 1435.58L138.754 1436.73L129.802 1474.77L124.935 1473.63L115.983 1511.67L120.85 1512.82L111.898 1550.87L107.031 1549.72L98.0792 1587.77L102.946 1588.91L93.9943 1626.96L89.1272 1625.81L80.1752 1663.86L85.0423 1665L76.0902 1703.05L71.2232 1701.9L62.2711 1739.95L67.1382 1741.1L58.1862 1779.14L53.3191 1778L44.3671 1816.04L49.2342 1817.19L40.2822 1855.23L35.4151 1854.09L26.4631 1892.14L31.3301 1893.28L22.3781 1931.33L17.511 1930.18L13.0351 1949.2L12.9022 1949.77V1950.35C12.9022 1952.03 12.3175 1954.65 11.2017 1958.58L16.0117 1959.95C15.7073 1961.02 15.3807 1962.14 15.0433 1963.29C13.6576 1968.02 12.0897 1973.37 11.1302 1978.95L6.20249 1978.11C5.61617 1981.52 5.229 1985.09 5.229 1988.72C5.229 1995.72 5.6897 2002.62 6.58271 2009.4L11.5398 2008.74C13.3201 2022.25 16.874 2035.22 21.958 2047.4L17.3436 2049.32C22.7067 2062.18 29.7171 2074.18 38.105 2085.08L42.0666 2082.03C50.2405 2092.64 59.7669 2102.17 70.3817 2110.34L67.3311 2114.3C78.224 2122.69 90.2301 2129.7 103.083 2135.06L105.008 2130.45C117.192 2135.53 130.158 2139.09 143.663 2140.87L143.009 2145.82C149.784 2146.72 156.688 2147.18 163.692 2147.18C172.394 2147.18 180.974 2146.36 189.357 2144.8L188.444 2139.88C204.871 2136.83 220.548 2130.86 234.901 2122.65L237.383 2126.99C252.302 2118.46 265.82 2107.59 277.343 2095.12L273.671 2091.73C285.085 2079.38 294.485 2065.39 301.246 2050.53L305.797 2052.6C309.384 2044.72 312.26 2036.58 314.333 2028.29L314.338 2028.27L314.342 2028.25L318.818 2009.71L313.958 2008.54L322.91 1971.45L327.77 1972.62L336.723 1935.54L331.862 1934.36L340.814 1897.28L345.675 1898.45L354.627 1861.36L349.766 1860.19L358.718 1823.1L363.579 1824.28L372.531 1787.19L367.67 1786.02L376.622 1748.93L381.483 1750.1L390.435 1713.02L385.574 1711.84L394.526 1674.76L399.387 1675.93L408.339 1638.84L403.478 1637.67L412.43 1600.58L417.291 1601.75L426.243 1564.67L421.382 1563.49L430.334 1526.41L435.195 1527.58L444.147 1490.49L439.286 1489.32L448.238 1452.23L453.099 1453.41L462.051 1416.32L457.19 1415.15L465.817 1379.41H470.618V1419.2H465.618V1458.98H470.618V1498.77H465.618V1538.56H470.618V1578.34H465.618V1618.13H470.618V1657.92H465.618V1697.7H470.618V1737.49H465.618V1777.28H470.618V1817.06H465.618V1856.85H470.618V1896.64H465.618V1936.42H470.618V1976.21H465.618V2016H470.618V2055.78H465.618V2095.57H470.618V2135.36H465.618V2175.14H470.618V2214.93H465.618V2254.72H470.618V2294.5H465.618V2334.29H470.618V2374.08H465.618V2413.86H470.618V2453.65H465.618V2493.44H470.618V2533.23H465.618V2573.01H470.618V2612.8H465.618V2652.59H470.618V2692.37H465.618V2732.16H470.618V2771.95H465.618V2811.73H470.618V2851.52H465.618V2891.31H470.618V2931.09H465.618V2970.88H470.618V3010.67H465.618V3050.45H470.618V3090.24H465.618V3130.03H470.618V3169.81H465.618V3209.6H470.618V3249.39H465.618V3289.17H470.618V3328.96H465.618V3368.75H470.618V3408.53H465.618V3448.32H470.618V3488.11H465.618V3508V3513H470.618H489.801V3508H528.167V3513H566.533V3508H604.899V3513H643.264V3508H681.63V3513H719.996V3508H758.362V3513H777.545H782.545V3508V3487.69H777.545V3447.07H782.545V3406.44H777.545V3365.82H782.545V3325.2H777.545V3284.58H782.545V3243.95H777.545V3203.33H782.545V3162.71H777.545V3122.09H782.545V3081.46H777.545V3040.84H782.545V3000.22H777.545V2959.59H782.545V2918.97H777.545V2878.35H782.545V2837.73H777.545V2797.1H782.545V2756.48H777.545V2715.86H782.545V2675.24H777.545V2634.61H782.545V2593.99H777.545V2553.37H782.545V2512.75H777.545V2472.12H782.545V2431.5H777.545V2390.88H782.545V2350.26H777.545V2309.63H782.545V2269.01H777.545V2228.39H782.545V2187.77H777.545V2147.14H782.545V2131.83H796.727V2126.83H835.093V2131.83H873.459V2126.83H911.825V2131.83H926.008V2147.14H931.008V2187.77H926.008V2228.39H931.008V2269.01H926.008V2309.63H931.008V2350.26H926.008V2390.88H931.008V2431.5H926.008V2472.12H931.008V2512.75H926.008V2553.37H931.008V2593.99H926.008V2634.61H931.008V2675.24H926.008V2715.86H931.008V2756.48H926.008V2797.1H931.008V2837.73H926.008V2878.35H931.008V2918.97H926.008V2959.6H931.008V3000.22H926.008V3040.84H931.008V3081.46H926.008V3122.09H931.008V3162.71H926.008V3203.33H931.008V3243.95H926.008V3284.58H931.008V3325.2H926.008V3365.82H931.008V3406.44H926.008V3447.07H931.008V3487.69H926.008V3508V3513H931.008H950.191V3508H988.556V3513H1026.92V3508H1065.29V3513H1103.65V3508H1142.02V3513H1180.39V3508H1218.75V3513H1237.93H1242.93V3508V3488.04H1237.93V3448.11H1242.93V3408.18H1237.93V3368.25H1242.93V3328.32H1237.93V3288.39H1242.93V3248.46H1237.93V3208.53H1242.93V3168.6H1237.93V3128.68H1242.93V3088.75H1237.93V3048.82H1242.93V3008.89H1237.93V2968.96H1242.93V2929.03H1237.93V2889.1H1242.93V2849.17H1237.93V2809.25H1242.93V2769.32H1237.93V2729.39H1242.93V2689.46H1237.93V2649.53H1242.93V2609.6H1237.93V2569.67H1242.93V2529.74H1237.93V2489.81H1242.93V2449.89H1237.93V2409.96H1242.93V2370.03H1237.93V2330.1H1242.93V2290.17H1237.93V2250.24H1242.93V2210.31H1237.93V2170.38H1242.93V2130.46H1237.93V2090.53H1242.93V2050.6H1237.93V2010.67H1242.93V1970.74H1237.93V1930.81H1242.93V1890.88H1237.93V1850.95H1242.93V1811.02H1237.93V1771.1H1242.93V1731.17H1237.93V1691.24H1242.93V1651.31H1237.93V1611.38H1242.93V1571.45H1237.93V1531.52H1242.93V1491.59H1237.93V1451.67H1242.93V1411.74H1237.93V1371.81H1242.75L1251.36 1407.47L1246.5 1408.65L1255.45 1445.73L1260.31 1444.56L1269.27 1481.65L1264.41 1482.82L1273.36 1519.91L1278.22 1518.73L1287.17 1555.82L1282.31 1556.99L1291.26 1594.08L1296.12 1592.91L1305.07 1629.99L1300.21 1631.17L1309.17 1668.26L1314.03 1667.08L1322.98 1704.17L1318.12 1705.34L1327.07 1742.43L1331.93 1741.26L1340.88 1778.34L1336.02 1779.52L1344.97 1816.6L1349.83 1815.43L1358.79 1852.52L1353.93 1853.69L1362.88 1890.78L1367.74 1889.6L1376.69 1926.69L1371.83 1927.86L1380.78 1964.95L1385.64 1963.78L1394.59 2000.86L1389.73 2002.04L1394.21 2020.58L1394.21 2020.6L1394.22 2020.62C1396.29 2028.91 1399.17 2037.05 1402.75 2044.93L1407.31 2042.86C1414.07 2057.72 1423.47 2071.7 1434.88 2084.06L1431.21 2087.45C1442.73 2099.92 1456.25 2110.79 1471.17 2119.32L1473.65 2114.98C1488 2123.19 1503.68 2129.16 1520.11 2132.21L1519.2 2137.13C1527.58 2138.68 1536.16 2139.51 1544.86 2139.51C1551.86 2139.51 1558.77 2139.04 1565.54 2138.15L1564.89 2133.19C1578.39 2131.41 1591.36 2127.86 1603.54 2122.78L1605.47 2127.39C1618.32 2122.03 1630.33 2115.02 1641.22 2106.63L1638.17 2102.67C1648.79 2094.49 1658.31 2084.97 1666.49 2074.35L1670.45 2077.4C1678.84 2066.51 1685.85 2054.5 1691.21 2041.65L1686.59 2039.73C1691.68 2027.54 1695.23 2014.58 1697.01 2001.07L1701.97 2001.72C1702.86 1994.95 1703.32 1988.05 1703.32 1981.04C1703.32 1977.41 1702.94 1973.84 1702.35 1970.43L1697.42 1971.28C1696.46 1965.7 1694.89 1960.35 1693.51 1955.62C1693.17 1954.46 1692.84 1953.35 1692.54 1952.28L1697.35 1950.91C1696.23 1946.98 1695.65 1944.35 1695.65 1942.68V1942.1L1695.52 1941.53L1691.04 1922.51L1686.17 1923.65L1677.22 1885.61L1682.09 1884.46L1673.14 1846.42L1668.27 1847.56L1659.32 1809.51L1664.19 1808.37L1655.23 1770.32L1650.37 1771.47L1641.41 1733.42L1646.28 1732.28L1637.33 1694.23L1632.46 1695.38L1623.51 1657.33L1628.38 1656.19L1619.43 1618.14L1614.56 1619.28L1605.61 1581.24L1610.47 1580.09L1601.52 1542.05L1596.65 1543.19L1587.7 1505.15L1592.57 1504L1583.62 1465.96L1578.75 1467.1L1569.8 1429.05L1574.67 1427.91L1565.71 1389.86L1560.85 1391.01L1551.89 1352.96L1556.76 1351.82L1547.81 1313.77L1542.94 1314.92L1533.99 1276.87L1538.86 1275.72L1529.9 1237.68L1525.04 1238.82L1516.09 1200.78L1520.95 1199.63L1512 1161.59L1507.13 1162.73L1498.18 1124.69L1503.05 1123.54L1494.1 1085.49L1489.23 1086.64L1480.28 1048.59L1485.14 1047.45L1480.67 1028.43Z" stroke="white" stroke-width="10" stroke-dasharray="40 40"/>
</svg>
